<svg id="Layer_1" enable-background="new 0 0 511.406 511.406" height="512" viewBox="0 0 511.406 511.406" width="512" xmlns="http://www.w3.org/2000/svg"><g><path d="m294.876 49.584v363.562h-191.248l262.753 88.757 129.819-384.312z" fill="#fff"/><path d="m13.2 7.5h281.68v405.65h-281.68z" fill="#fff"/><path d="m346.23 281.01-51.35 33.47v-95.73l23.72-15.46z" fill="#ea5172"/><g><path d="m185.523 190.573c3.505-5.656 5.534-12.324 5.534-19.467 0-20.444-16.573-37.017-37.017-37.017s-37.017 16.573-37.017 37.017c0 7.143 2.029 13.811 5.534 19.467-21.806-1.799-40.099 15.406-40.099 36.879 0 20.444 16.573 37.017 37.017 37.017 15.774 0 29.235-9.87 34.565-23.768 5.331 13.898 18.791 23.768 34.565 23.768 20.444 0 37.017-16.573 37.017-37.017 0-21.458-18.278-38.679-40.099-36.879z" fill="#72869e"/></g><g><g><g><path d="m314.876 56.34-20-6.756v363.562h20z" fill="#e3edf6"/></g><g><path d="m123.628 413.146h-20l262.753 88.757 2.048-6.064z" fill="#e3edf6"/></g></g></g><path d="m13.2 7.5h20v405.65h-20z" fill="#e3edf6"/><path d="m314.88 218.75 7.482-4.877-3.762-10.583-23.72 15.46v95.73l20-13.036z" fill="#b3387f"/><g fill="#536275"><path d="m102.458 227.452c0-21.454 18.276-38.681 40.099-36.879-12.895-20.808-2.267-48.454 21.483-55.106-23.624-6.615-47.017 11.149-47.017 35.639 0 7.143 2.029 13.811 5.534 19.467-21.806-1.8-40.099 15.407-40.099 36.879 0 24.583 23.502 42.247 47.034 35.644-15.593-4.359-27.034-18.661-27.034-35.644z"/><path d="m174.04 240.7c-2.144 5.589-5.605 10.525-10 14.432 9.56 8.496 22.568 11.313 34.548 7.964-11.288-3.169-20.391-11.557-24.548-22.396z"/></g><g><path d="m237.155 338.045v-15h-19.81v15h2.74l16.823 54.592h15.473l16.823-54.592h2.605v-15h-19.81v15h1.509l-.993 3.223h-15.742l-.993-3.223zm10.738 18.223-3.248 10.54-3.248-10.54z"/><path d="m71.167 28.009h-15.473l-16.823 54.592h-2.604v15h19.81v-15h-1.51l.993-3.222h15.742l.993 3.222h-1.374v15h19.81v-15h-2.74zm-10.985 36.37 3.248-10.54 3.248 10.54z"/><path d="m302.38 0h-296.68v293.91h15v-278.91h266.68v390.65h-266.68v-96.74h-15v111.74h296.68z"/><path d="m318.027 463.922 14.658 4.95 33.409-46.336 2.468.833 4.801-14.211-18.768-6.339-4.801 14.211 1.43.483-2.071 2.873-14.819-5.006.095-3.54 1.302.44 4.801-14.211-18.768-6.34-4.801 14.211 2.596.877zm21.946-30.805-6.351 8.808.291-10.855z"/><path d="m328.975 301.213 26.301-17.147-23.33-65.628-14.133 5.024 19.371 54.493-16.4 10.692z"/><path d="m361.675 492.394-166.825-56.35-4.8 14.211 181.035 61.151 54.131-160.236-14.211-4.8z"/><path d="m327.28 52.604-4.801 14.211 164.215 55.48-70.63 209.075 14.211 4.8 75.431-223.285z"/><path d="m74.958 227.452c0 24.546 19.97 44.517 44.517 44.517 9.957 0 19.432-3.407 27.065-9.257v16.35h-15.463v15h45.926v-15h-15.463v-16.35c7.634 5.85 17.109 9.258 27.065 9.258 24.547 0 44.517-19.97 44.517-44.517 0-21.766-15.703-39.934-36.375-43.771 8.389-28.492-13.061-57.092-42.707-57.092-29.686 0-51.087 28.63-42.707 57.092-20.672 3.836-36.375 22.004-36.375 43.77zm44.516-29.517c1.674 0 2.084.081 17.296 1.337l-7.839-12.65c-2.884-4.655-4.408-10.02-4.408-15.517 0-16.276 13.241-29.517 29.517-29.517s29.517 13.241 29.517 29.517c0 5.497-1.524 10.862-4.408 15.517l-7.838 12.649c16.112-1.33 15.818-1.336 17.295-1.336 16.275 0 29.517 13.241 29.517 29.517 0 16.275-13.241 29.517-29.517 29.517-12.138 0-23.214-7.617-27.563-18.954l-7.004-18.256-7.002 18.257c-4.348 11.337-15.425 18.954-27.563 18.954-16.275 0-29.517-13.241-29.517-29.517.001-16.277 13.242-29.518 29.517-29.518z"/></g><g><path d="m431.681 238.284-14.211-4.8 4.798-14.205 14.211 4.8zm14.4-42.627-14.211-4.8 4.8-14.211 14.211 4.8zm14.4-42.633-14.211-4.801 4.801-14.211 14.211 4.801z"/></g><g><g><path d="m42.607 202.825h15v15h-15z"/></g><g><path d="m250.607 202.825h15v15h-15z"/></g></g></g></svg>